<?xml version="1.0" standalone="no"?>
<!DOCTYPE svg PUBLIC "-//W3C//DTD SVG 20010904//EN"
 "http://www.w3.org/TR/2001/REC-SVG-20010904/DTD/svg10.dtd">
<svg version="1.0" xmlns="http://www.w3.org/2000/svg"
 width="260.000000pt" height="260.000000pt" viewBox="0 0 260.000000 260.000000"
 preserveAspectRatio="xMidYMid meet">
<metadata>
Created by potrace 1.11, written by Peter Selinger 2001-2013
</metadata>
<g transform="translate(0.000000,260.000000) scale(0.100000,-0.100000)"
fill="#000000" stroke="none">
<path d="M1189 2456 c-2 -2 -29 -6 -59 -9 -30 -4 -90 -16 -133 -27 -498 -131
-868 -519 -973 -1020 -19 -91 -26 -343 -12 -453 29 -222 164 -516 309 -672 21
-22 46 -49 56 -60 10 -11 34 -33 53 -50 36 -31 29 -19 -29 45 -74 83 -186 286
-224 405 -50 157 -62 239 -61 420 2 814 769 1417 1569 1236 308 -70 583 -258
765 -522 51 -74 114 -188 133 -239 3 -8 6 -10 6 -3 2 20 -49 153 -86 228 -93
186 -270 389 -434 498 -143 94 -339 177 -483 203 -17 3 -44 8 -61 11 -35 7
-330 15 -336 9z"/>
<path d="M1947 1794 c-1 -1 -60 -4 -132 -8 -71 -3 -146 -8 -165 -11 -236 -35
-325 -51 -435 -80 -207 -54 -349 -111 -500 -200 -92 -55 -227 -155 -209 -155
6 0 44 11 85 25 73 25 240 68 309 80 19 3 60 10 90 15 113 19 242 30 418 35
l143 4 -34 -62 c-157 -280 -295 -483 -487 -712 -52 -62 -240 -242 -299 -285
-33 -25 -60 -48 -61 -51 0 -11 162 22 228 47 276 104 568 360 859 754 128 173
373 569 373 603 0 3 -180 3 -183 1z"/>
</g>
</svg>
