<!-- Generated by IcoMoon.io -->
<svg version="1.1" xmlns="http://www.w3.org/2000/svg"
     width="1024"
     height="1024"
     viewBox="0 0 1024 1024"
     fill="rgb(255, 255, 255)"
     fill-opacity=".3">
    <path d="M281.251 192.375c236.973-148.417 549.406-76.623 697.824 160.364 16.546 25.94 31.658 55.811 43.748 87.183l1.178 3.477c-14.597-55.194-36.094-103.598-64.002-147.531l1.256 2.116c-152.505-243.509-473.563-317.287-717.072-164.782-243.509 152.519-317.287 473.55-164.782 717.072 29.114 46.1 63.381 85.607 102.748 119.333l0.704 0.589c-22.531-23.726-42.96-49.887-60.722-77.906l-1.23-2.077c-148.431-236.987-76.623-549.406 160.337-697.837z"></path>
    <path d="M196.518 496.408c102.83-39.992 239.090-65.511 414.601-64.452-123.877 228.414-244.686 364.37-349.196 436.019 141.459-3.44 354.872-143.536 577.227-553.521-328.347-1.984-532.314 80.275-642.632 181.953z"></path>
    <path d="M261.447 867.975l-0.132 0.079c0.371-0.027 0.727-0.079 1.058-0.093h-0.926z"></path>
</svg>
