<svg xmlns="http://www.w3.org/2000/svg" xmlns:xlink="http://www.w3.org/1999/xlink" width="71" height="70" viewBox="0 0 71 70"><defs><path id="w00na" d="M2328.708 2498.958c0 19.33-15.671 35-35 35-19.33 0-35-15.67-35-35s15.67-35 35-35c19.329 0 35 15.67 35 35z"/><path id="w00nb" d="M2315.144 2489.112a16.69 16.69 0 0 1-4.803 1.316 8.4 8.4 0 0 0 3.68-4.628 16.776 16.776 0 0 1-5.314 2.03 8.353 8.353 0 0 0-6.108-2.642 8.366 8.366 0 0 0-8.365 8.365c0 .656.073 1.296.217 1.91-6.953-.352-13.119-3.682-17.243-8.745a8.316 8.316 0 0 0-1.133 4.206 8.366 8.366 0 0 0 3.72 6.965 8.335 8.335 0 0 1-3.79-1.048v.107c0 4.051 2.884 7.433 6.71 8.201a8.323 8.323 0 0 1-3.777.146 8.375 8.375 0 0 0 7.817 5.81 16.778 16.778 0 0 1-10.39 3.578c-.678 0-1.345-.036-1.996-.115a23.672 23.672 0 0 0 12.821 3.76c15.388 0 23.806-12.75 23.806-23.805 0-.363-.01-.723-.025-1.082a16.956 16.956 0 0 0 4.173-4.329z"/></defs><g><g transform="translate(-2258 -2464)"><use fill="#55aaec" xlink:href="#w00na"/></g><g transform="translate(-2258 -2464)"><use fill="#eff0f0" xlink:href="#w00nb"/></g></g></svg>