<svg version="1.1" xmlns="http://www.w3.org/2000/svg" width="1024" height="1024" viewBox="0 0 1024 1024">
  <path fill="none" stroke="#4c5256" stroke-linejoin="miter" stroke-linecap="butt" stroke-miterlimit="10" stroke-width="25.677" d="M1007.993 511.994c0 273.935-222.065 496-496 496s-496-222.065-496-496c0-273.935 222.065-496 496-496s496 222.065 496 496z"></path>
  <path fill="#4c5256" d="M654.226 177.677c11.067 94.847 64.004 151.364 156.064 157.406v106.687c-53.381 5.247-100.097-12.263-154.473-45.148v199.569c0 253.425-276.283 332.65-387.372 150.964-71.392-116.887-27.634-322 201.31-330.237v112.458c-17.46 2.813-36.045 7.237-53.159 13.057-50.92 17.212-79.771 49.525-71.765 106.486 15.447 109.050 215.589 141.389 198.898-71.788v-399.239h110.493z"></path>
</svg>
