<svg xmlns="http://www.w3.org/2000/svg" viewBox="0 0 40.88 40.88"><defs><clipPath id="A"><path d="M0 0h40v40H0z"/></clipPath></defs><g clip-path="url(#A)"><g fill="none" stroke="#fff"><circle cx="20" cy="20" r="19.5"/></g><path d="M10.077 14h3.383c-.18 1.828.206 3.667 1.105 5.269.794 1.382 1.947 2.524 3.336 3.306l-.02-8.565h3.249v4.878A9.06 9.06 0 0 0 26.285 14h2.982c-.291 1.008-.729 1.968-1.3 2.849-.765 1.191-1.756 2.22-2.916 3.03a9.37 9.37 0 0 1 2.8 2.144c1.043 1.171 1.782 2.581 2.15 4.106h-3.479c-.223-1.174-.806-2.25-1.667-3.078a5.88 5.88 0 0 0-3.735-1.572v4.659a11.4 11.4 0 0 1-8.994-4.24 10.99 10.99 0 0 1-2.039-7.9z" fill="#fff"/></g></svg>