<svg xmlns="http://www.w3.org/2000/svg" xmlns:xlink="http://www.w3.org/1999/xlink" width="71" height="71" viewBox="0 0 71 71"><defs><path id="wkzka" d="M2118.468 2379.347c0 19.328-15.671 35-35 35-19.33 0-35-15.672-35-35 0-19.33 15.67-35 35-35 19.329 0 35 15.67 35 35z"/><path id="wkzkb" d="M2092.266 2380.718h-6.245v22.879h-9.462v-22.88h-4.5v-8.042h4.5v-5.202c0-3.72 1.767-9.548 9.548-9.548l7.006.03v7.805h-5.084c-.835 0-2.008.418-2.008 2.19v4.735h7.074z"/></defs><g><g transform="translate(-2048 -2344)"><use fill="#3b5996" xlink:href="#wkzka"/></g><g transform="translate(-2048 -2344)"><use fill="#fff" xlink:href="#wkzkb"/></g></g></svg>