<svg xmlns="http://www.w3.org/2000/svg" viewBox="0 0 40.88 40.88"><defs><style>.cls-1{fill:none;stroke:#fff;stroke-miterlimit:10;}.cls-2{fill:#fff;}</style></defs><title>soc_2_ig</title><g id="Слой_2" data-name="Слой 2"><g id="Слой_1-2" data-name="Слой 1"><circle class="cls-1" cx="20.44" cy="20.44" r="19.94"/><path class="cls-2" d="M25.15,9.45H15.73a7,7,0,0,0-7,6.94v9.43a7,7,0,0,0,7,6.94h9.42a7,7,0,0,0,7-6.94V16.39A7,7,0,0,0,25.15,9.45Zm4.6,16.37a4.6,4.6,0,0,1-4.6,4.6H15.73a4.6,4.6,0,0,1-4.6-4.6V16.39a4.6,4.6,0,0,1,4.6-4.6h9.42a4.6,4.6,0,0,1,4.6,4.6v9.43Z"/><path class="cls-2" d="M20.44,15.08a6,6,0,1,0,6,6A6,6,0,0,0,20.44,15.08Zm0,9.71a3.69,3.69,0,1,1,3.69-3.68A3.68,3.68,0,0,1,20.44,24.79Z"/><circle class="cls-2" cx="26.48" cy="15.12" r="1.45"/></g></g></svg>