<svg xmlns="http://www.w3.org/2000/svg" viewBox="0 0 43.96 50.24"><path d="M3.14,0H29.82L44,14.09v33a3.15,3.15,0,0,1-3.14,3.14H3.14A3.14,3.14,0,0,1,0,47.1v-44A3.15,3.15,0,0,1,3.14,0Z" style="fill:#004c9a"/><path d="M43.92,14.13H33A3.15,3.15,0,0,1,29.83,11V0Z" style="fill:#002f63"/><path d="M11.74,25.84H11V29a1.31,1.31,0,0,1-.28.93,1,1,0,0,1-.73.3A.93.93,0,0,1,9.27,30,1.37,1.37,0,0,1,9,29V21.37a1.33,1.33,0,0,1,.29-.95,1.33,1.33,0,0,1,1-.29h3.29a9.58,9.58,0,0,1,1.16.06,3.26,3.26,0,0,1,.87.23,2.59,2.59,0,0,1,.83.56,2.54,2.54,0,0,1,.55.85,2.73,2.73,0,0,1,.19,1,2.48,2.48,0,0,1-.63,1.78,3.7,3.7,0,0,1-1.91.95,3.74,3.74,0,0,1,1,.84,7.72,7.72,0,0,1,.87,1.19,9.17,9.17,0,0,1,.6,1.14,2.28,2.28,0,0,1,.21.7.67.67,0,0,1-.13.39,1,1,0,0,1-.34.31,1.15,1.15,0,0,1-.5.11.94.94,0,0,1-.57-.16,1.69,1.69,0,0,1-.4-.4q-.16-.24-.45-.72l-.81-1.35a7.63,7.63,0,0,0-.78-1.13,1.83,1.83,0,0,0-.7-.53A2.38,2.38,0,0,0,11.74,25.84Zm1.16-4.19H11v2.74h1.81a4.75,4.75,0,0,0,1.22-.13,1.52,1.52,0,0,0,.76-.43,1.25,1.25,0,0,0,.26-.83,1.25,1.25,0,0,0-.79-1.2A4.27,4.27,0,0,0,12.9,21.65Z" style="fill:#fff"/><path d="M25,21.69H21v2.55h3.33a1,1,0,0,1,.69.21.77.77,0,0,1,0,1.1,1,1,0,0,1-.69.2H21V29a1.31,1.31,0,0,1-.28.93,1,1,0,0,1-.72.3.93.93,0,0,1-.73-.31A1.31,1.31,0,0,1,19,29V21.36a1.61,1.61,0,0,1,.13-.71.82.82,0,0,1,.4-.4,1.75,1.75,0,0,1,.7-.13H25a1.07,1.07,0,0,1,.72.21.79.79,0,0,1,0,1.13A1,1,0,0,1,25,21.69Z" style="fill:#fff"/><path d="M32.79,29l-.48-1.25H28.26L27.79,29a4.14,4.14,0,0,1-.48,1,.77.77,0,0,1-.65.26A.92.92,0,0,1,26,30a.84.84,0,0,1-.29-.63,1.23,1.23,0,0,1,.07-.42c0-.15.12-.35.22-.61l2.55-6.48.26-.67a3,3,0,0,1,.33-.65,1.43,1.43,0,0,1,.46-.42,1.37,1.37,0,0,1,.7-.16,1.34,1.34,0,0,1,.7.16,1.4,1.4,0,0,1,.46.41,2.81,2.81,0,0,1,.29.54c.08.19.18.45.3.77l2.61,6.43A3.4,3.4,0,0,1,35,29.33a.92.92,0,0,1-.29.64,1,1,0,0,1-.7.29,1,1,0,0,1-.41-.08.73.73,0,0,1-.29-.23A2.19,2.19,0,0,1,33,29.5C32.93,29.31,32.86,29.13,32.79,29Zm-4-2.77h3l-1.5-4.11Z" style="fill:#fff"/></svg>