<?xml version="1.0" encoding="utf-8"?>
<!-- Generator: Adobe Illustrator 22.0.1, SVG Export Plug-In . SVG Version: 6.00 Build 0)  -->
<svg version="1.1" id="Слой_1" xmlns="http://www.w3.org/2000/svg" xmlns:xlink="http://www.w3.org/1999/xlink" x="0px" y="0px"
	 viewBox="0 0 300 300" style="enable-background:new 0 0 300 300;" xml:space="preserve">
<style type="text/css">
	.st0{fill:#FFFFFF;}
	.st1{opacity:0.3;}
	.st2{fill:#485156;}
</style>
<title>icon-photo1</title>
<rect class="st0" width="300" height="300"/>
<g class="st1">
	<path class="st2" d="M150.6,209c-26.1,0-47.3-21.2-47.3-47.3c0-26.1,21.2-47.3,47.3-47.3c26.1,0,47.3,21.2,47.3,47.3c0,0,0,0,0,0
		C197.9,187.8,176.8,209,150.6,209z M150.6,115.9c-25.3,0-45.8,20.5-45.8,45.8s20.5,45.8,45.8,45.8c25.3,0,45.8-20.5,45.8-45.8l0,0
		C196.4,136.4,175.9,116,150.6,115.9z"/>
	<path class="st2" d="M150.6,195.8c-18.8,0-34.1-15.3-34.1-34.1c0-18.8,15.3-34.1,34.1-34.1c18.8,0,34.1,15.3,34.1,34.1
		S169.5,195.8,150.6,195.8L150.6,195.8z M150.6,129.9c-17.6,0-31.8,14.2-31.8,31.8s14.2,31.8,31.8,31.8c17.6,0,31.8-14.2,31.8-31.8
		l0,0C182.4,144.2,168.2,130,150.6,129.9z"/>
	<path class="st2" d="M100.9,193.9H79.4v-64.4h21.4L100.9,193.9z M81.3,192.1h17.8v-60.8l-19.6-1.8L81.3,192.1z"/>
	<path class="st2" d="M200.5,129.5H222v64.4h-21.5V129.5z M220.1,131.3h-17.7v60.8l19.6,1.8L220.1,131.3z"/>
	<path class="st2" d="M139,213.9H72.4v-18.5h36.1l0.2,0.3c3,4,6.8,7.4,11.2,9.8c7,3.9,19.1,7,19.2,7l5.5,1.4H139z M73.8,212.5h60.1
		c-4.2-1.3-10.3-3.3-14.7-5.8c-6.4-3.5-9.7-10-10.7-11.3l-34.7,1.4L73.8,212.5z"/>
	<path class="st2" d="M156.9,213.9l5.4-1.4c0.1,0,12.2-3.1,19.3-7c4.4-2.4,8.1-5.8,11.1-9.8l0.2-0.3h36.2v18.5H156.9z M227.7,196.8
		l-34.8-1.4c-0.9,1.3-4.3,7.8-10.7,11.3c-4.3,2.5-10.4,4.5-14.6,5.8h60.1V196.8z"/>
	<path class="st2" d="M162.5,109.6h66.6V128h-36.2l-0.2-0.3c-3-4-6.8-7.3-11.1-9.8c-7.1-3.9-19.2-6.9-19.3-7l-5.4-1.3L162.5,109.6z
		 M227.7,110.9h-60.1c5,1.5,9.9,3.4,14.6,5.8c6.4,3.5,9.8,10,10.7,11.3l34.8-1.4L227.7,110.9z"/>
	<path class="st2" d="M144.5,109.6l-5.5,1.3c-0.1,0.1-12.2,3.1-19.2,7c-4.3,2.5-8.2,5.8-11.2,9.8l-0.2,0.3H72.4v-18.4H144.5z
		 M73.7,126.6l34.7,1.4c1-1.3,4.3-7.8,10.7-11.3c4.7-2.4,9.6-4.3,14.7-5.8H73.8L73.7,126.6z"/>
	<path class="st2" d="M108.9,110.3H80.1v-6.5c0-0.2,2.1-4.4,14.3-4.4s14.2,4.2,14.3,4.4v6.5H108.9z M81.6,108.9h26l1.3-5.1
		c-0.4-0.6-4.3-3.1-14.3-3.1s-14,2.6-14.4,3.3L81.6,108.9z"/>
	<path class="st2" d="M217.5,103.4V98H196v5.4h-3.6v6.9h28.7v-6.9H217.5z M197.4,99.4l20.1-1.4l-1.4,5.4h-18.7L197.4,99.4z
		 M219.8,108.9h-26.1l-1.3-5.5l25.1,1.4h2.3L219.8,108.9z"/>
	<path class="st2" d="M171.8,100h-42.1V79.5h42.1V100z M131,98.7h39.4l1.1-19.2L131,80.9V98.7z"/>
	<path class="st2" d="M164.6,95h-27.9V84.6h27.9V95z M136.8,95l26.5-1.4v-7.7h-25.1L136.8,95z"/>
	<path class="st2" d="M139.5,110.3h-6V98.7h6V110.3z M134.9,108.9h3.2V100h-3.2V108.9z"/>
	<path class="st2" d="M167.9,110.3h-6.1V98.7h6.1V110.3z M163.1,108.9h3.3V100h-3.3V108.9z"/>
	<path class="st2" d="M140.1,144.4c10.8-6.7,25-3.5,31.8,7.3c0.8,1.3,1.5,2.8,2.1,4.2c-0.6-2.4-1.6-4.6-2.9-6.7
		c-7-11.1-21.6-14.5-32.7-7.5c-11.1,7-14.5,21.6-7.5,32.7c1.3,2.1,2.9,3.9,4.7,5.5c-1.1-1.1-2-2.4-2.8-3.7
		c-6.8-10.7-3.6-24.9,7.2-31.7C140.1,144.5,140.1,144.4,140.1,144.4z"/>
	<path class="st2" d="M136.3,158.3c4.7-1.8,10.9-3,18.9-3c-5.6,10.4-11.1,16.6-15.9,19.9c6.5-0.1,16.2-6.5,26.3-25.2
		C150.6,149.9,141.4,153.6,136.3,158.3z"/>
</g>
</svg>
