<svg version="1.1" xmlns="http://www.w3.org/2000/svg" x="0px" y="0px" width="43.6px" height="53px" viewBox="0 0 43.6 53" xml:space="preserve">
<style type="text/css">
	.st0{opacity:0.15;}
	.st1{fill:none;stroke:#000000;stroke-width:1.8694;stroke-miterlimit:10;}
	.st2{fill:none;stroke:#4c5256;stroke-width:1.8694;stroke-miterlimit:10;}
	.st3{fill:#4c5256;}
	.st4{fill:#EA0001;}
	.st5{fill:#FFFFFF;}
</style>
    <g class="st0">
        <path class="st1" d="M31.4,2.8H12.2c-1.7,0-3,1.4-3,3v36.6c0,1.7,1.4,3,3,3h27.4c1.7,0,3-1.4,3-3V14.1L31.4,2.8z"></path>
        <path d="M31.5,2.8v8.3c0,1.7,1.4,3,3,3h8.1L31.5,2.8z"></path>
        <path d="M21.7,28.5H9.4c-4.2,0-7.6-3.4-7.6-7.6v0c0-4.2,3.4-7.6,7.6-7.6h12.3c4.2,0,7.6,3.4,7.6,7.6v0 C29.3,25.1,25.9,28.5,21.7,28.5z"></path>
        <path d="M8,17.5c0.2-0.1,0.5-0.1,0.8-0.1c0.3,0,0.6,0,0.8,0c0.3,0,0.6,0,0.9,0.1c0.3,0.1,0.6,0.2,0.8,0.3c0.2,0.2,0.5,0.4,0.6,0.6 s0.2,0.6,0.2,1c0,0.4-0.1,0.8-0.2,1s-0.3,0.5-0.6,0.7c-0.2,0.2-0.5,0.3-0.8,0.4c-0.3,0.1-0.6,0.1-1,0.1c0,0-0.1,0-0.2,0 s-0.1,0-0.2,0c-0.1,0-0.2,0-0.2,0c-0.1,0-0.1,0-0.2,0v2.5H8V17.5z M9.6,18c-0.2,0-0.3,0-0.5,0c-0.2,0-0.3,0-0.4,0v2.8 c0,0,0.1,0,0.2,0c0.1,0,0.1,0,0.2,0c0.1,0,0.1,0,0.2,0c0.1,0,0.1,0,0.2,0c0.2,0,0.4,0,0.6-0.1c0.2,0,0.4-0.1,0.6-0.2 c0.2-0.1,0.3-0.3,0.4-0.5c0.1-0.2,0.2-0.4,0.2-0.8c0-0.3,0-0.5-0.1-0.7c-0.1-0.2-0.2-0.3-0.4-0.4c-0.2-0.1-0.3-0.2-0.5-0.2 C10,18.1,9.8,18,9.6,18z"></path>
        <path d="M13.3,17.4c0.1,0,0.3,0,0.4,0c0.1,0,0.3,0,0.5,0c0.2,0,0.3,0,0.5,0c0.2,0,0.3,0,0.4,0c0.5,0,1,0.1,1.4,0.2 c0.4,0.2,0.7,0.4,1,0.7c0.3,0.3,0.4,0.7,0.6,1.1s0.2,0.9,0.2,1.4c0,0.5-0.1,0.9-0.2,1.3c-0.1,0.4-0.3,0.8-0.6,1.1s-0.6,0.6-1,0.8 c-0.4,0.2-0.9,0.3-1.5,0.3c-0.1,0-0.2,0-0.4,0c-0.2,0-0.3,0-0.5,0c-0.2,0-0.3,0-0.5,0c-0.1,0-0.3,0-0.3,0V17.4z M15.1,18.1 c-0.1,0-0.2,0-0.3,0s-0.2,0-0.3,0c-0.1,0-0.2,0-0.3,0c-0.1,0-0.1,0-0.2,0v5.4c0,0,0.1,0,0.2,0c0.1,0,0.2,0,0.3,0 c0.1,0,0.2,0,0.3,0c0.1,0,0.2,0,0.2,0c0.4,0,0.8-0.1,1.1-0.2c0.3-0.2,0.5-0.4,0.7-0.6s0.3-0.6,0.4-0.9c0.1-0.3,0.1-0.7,0.1-1 c0-0.3,0-0.6-0.1-0.9s-0.2-0.6-0.4-0.9c-0.2-0.3-0.4-0.5-0.7-0.6C15.9,18.1,15.5,18.1,15.1,18.1z"></path>
        <path d="M19.6,17.4h3.6v0.7h-2.8v2.3H23v0.7h-2.7v3h-0.8V17.4z"></path>
        <polygon points="30.5,41 30.5,32 21.1,32 21.1,41 16.1,41 25.7,53 35.4,41"></polygon>
	</g>
    <path class="st2" d="M29.6,0.9H10.3c-1.7,0-3,1.4-3,3v36.6c0,1.7,1.4,3,3,3h27.4c1.7,0,3-1.4,3-3V12.2L29.6,0.9z"></path>
    <path class="st3" d="M29.6,0.9v8.3c0,1.7,1.4,3,3,3h8.1L29.6,0.9z"></path>
    <path class="st4" d="M19.9,26.6H7.6C3.4,26.6,0,23.2,0,19v0c0-4.2,3.4-7.6,7.6-7.6h12.3c4.2,0,7.6,3.4,7.6,7.6v0 C27.4,23.2,24,26.6,19.9,26.6z"></path>
    <path class="st5" d="M6.1,15.6c0.2-0.1,0.5-0.1,0.8-0.1c0.3,0,0.6,0,0.8,0c0.3,0,0.6,0,0.9,0.1c0.3,0.1,0.6,0.2,0.8,0.3 c0.2,0.2,0.5,0.4,0.6,0.6s0.2,0.6,0.2,1c0,0.4-0.1,0.8-0.2,1s-0.3,0.5-0.6,0.7c-0.2,0.2-0.5,0.3-0.8,0.4c-0.3,0.1-0.6,0.1-1,0.1 c0,0-0.1,0-0.2,0s-0.1,0-0.2,0c-0.1,0-0.2,0-0.2,0c-0.1,0-0.1,0-0.2,0v2.5H6.1V15.6z M7.7,16.2c-0.2,0-0.3,0-0.5,0 c-0.2,0-0.3,0-0.4,0V19c0,0,0.1,0,0.2,0c0.1,0,0.1,0,0.2,0c0.1,0,0.1,0,0.2,0c0.1,0,0.1,0,0.2,0c0.2,0,0.4,0,0.6-0.1 c0.2,0,0.4-0.1,0.6-0.2c0.2-0.1,0.3-0.3,0.4-0.5c0.1-0.2,0.2-0.4,0.2-0.8c0-0.3,0-0.5-0.1-0.7c-0.1-0.2-0.2-0.3-0.4-0.4 c-0.2-0.1-0.3-0.2-0.5-0.2C8.1,16.2,7.9,16.2,7.7,16.2z"></path>
    <path class="st5" d="M11.4,15.6c0.1,0,0.3,0,0.4,0c0.1,0,0.3,0,0.5,0c0.2,0,0.3,0,0.5,0c0.2,0,0.3,0,0.4,0c0.5,0,1,0.1,1.4,0.2 c0.4,0.2,0.7,0.4,1,0.7c0.3,0.3,0.4,0.7,0.6,1.1s0.2,0.9,0.2,1.4c0,0.5-0.1,0.9-0.2,1.3c-0.1,0.4-0.3,0.8-0.6,1.1 s-0.6,0.6-1,0.8c-0.4,0.2-0.9,0.3-1.5,0.3c-0.1,0-0.2,0-0.4,0c-0.2,0-0.3,0-0.5,0c-0.2,0-0.3,0-0.5,0c-0.1,0-0.3,0-0.3,0V15.6z M13.2,16.2c-0.1,0-0.2,0-0.3,0s-0.2,0-0.3,0c-0.1,0-0.2,0-0.3,0c-0.1,0-0.1,0-0.2,0v5.4c0,0,0.1,0,0.2,0c0.1,0,0.2,0,0.3,0 c0.1,0,0.2,0,0.3,0c0.1,0,0.2,0,0.2,0c0.4,0,0.8-0.1,1.1-0.2c0.3-0.2,0.5-0.4,0.7-0.6s0.3-0.6,0.4-0.9c0.1-0.3,0.1-0.7,0.1-1 c0-0.3,0-0.6-0.1-0.9s-0.2-0.6-0.4-0.9c-0.2-0.3-0.4-0.5-0.7-0.6C14,16.3,13.7,16.2,13.2,16.2z"></path>
    <path class="st5" d="M17.7,15.6h3.6v0.7h-2.8v2.3h2.7v0.7h-2.7v3h-0.8V15.6z"></path>
    <polygon class="st4" points="28.7,39.2 28.7,30.1 19.2,30.1 19.2,39.2 14.2,39.2 23.9,51.1 33.5,39.2"></polygon>
</svg>