<svg xmlns="http://www.w3.org/2000/svg" width="59" height="59" viewBox="0 0 59 59">
  <g id="Сгруппировать_610" transform="translate(-1194 -329)">
    <circle id="Эллипс_2" cx="29.5" cy="29.5" r="29.5" transform="translate(1194 329)" fill="#ff0019"/>
    <path id="Контур_402" d="M33.836-5.632v-4.62a5.682,5.682,0,0,0-5.94-5.94,5.658,5.658,0,0,0-5.94,5.94v4.62A5.658,5.658,0,0,0,27.9.308,5.682,5.682,0,0,0,33.836-5.632ZM14.74-21.076V-25.7a5.682,5.682,0,0,0-5.94-5.94A5.658,5.658,0,0,0,2.86-25.7v4.62a5.647,5.647,0,0,0,5.94,5.9A5.671,5.671,0,0,0,14.74-21.076ZM27.016-31.328h-2.64L9.68,0h2.64ZM31.328-5.72c0,2.332-1.056,3.828-3.432,3.828-2.42,0-3.432-1.452-3.432-3.828v-4.444c0-2.376,1.012-3.828,3.432-3.828,2.376,0,3.432,1.5,3.432,3.828Zm-19.1-15.444c0,2.332-1.056,3.784-3.432,3.784s-3.432-1.408-3.432-3.784v-4.444c0-2.376,1.012-3.828,3.432-3.828,2.376,0,3.432,1.5,3.432,3.828Z" transform="translate(1205 374)" fill="#fff"/>
  </g>
</svg>
