<svg xmlns="http://www.w3.org/2000/svg" viewBox="0 0 40.88 40.88"><defs><style>.cls-1{fill:none;stroke:#fff;stroke-miterlimit:10;}.cls-2{fill:#fff;}</style></defs><title>soc_2_yt</title><g id="Слой_2" data-name="Слой 2"><g id="Слой_1-2" data-name="Слой 1"><path class="cls-1" d="M20.44,40.38A19.94,19.94,0,1,1,40.38,20.44,20,20,0,0,1,20.44,40.38Z"/><path class="cls-2" d="M32.38,17.42a5.12,5.12,0,0,0-5.12-5.12H14a5.12,5.12,0,0,0-5.12,5.12v6.22A5.12,5.12,0,0,0,14,28.76H27.26a5.12,5.12,0,0,0,5.12-5.12ZM24,20.84l-5.3,2.91c-.23.12-.43,0-.43-.31v-6c0-.26.21-.43.44-.3L24,20.24A.34.34,0,0,1,24,20.84Z"/></g></g></svg>