<svg xmlns="http://www.w3.org/2000/svg" viewBox="0 0 40.88 40.88"><defs><style>.cls-1{fill:none;stroke:#4c5256;stroke-miterlimit:10;}.cls-2,.cls-3{fill:#4c5256;}.cls-3{fill-rule:evenodd;}</style></defs><title>soc_2_tw</title><g id="Слой_2" data-name="Слой 2"><g id="Слой_1-2" data-name="Слой 1"><path class="cls-1" d="M20.44,40.38A19.94,19.94,0,1,1,40.38,20.44,20,20,0,0,1,20.44,40.38Z"/><path class="cls-2" d="M32.91,13.19a10.86,10.86,0,0,1-2.56.73c.41-.07,1-.81,1.26-1.11a4.7,4.7,0,0,0,.85-1.55s0-.1,0-.14a.17.17,0,0,0-.14,0,13.29,13.29,0,0,1-3,1.17.2.2,0,0,1-.21-.06,2.29,2.29,0,0,0-.27-.27,5.23,5.23,0,0,0-1.46-.9,5.14,5.14,0,0,0-2.26-.36,5.2,5.2,0,0,0-2.14.6,5.58,5.58,0,0,0-1.72,1.41,5.2,5.2,0,0,0-1,2.06A5.72,5.72,0,0,0,20.14,17c0,.12,0,.14-.1.12a16.19,16.19,0,0,1-10.42-5.3c-.12-.14-.19-.14-.29,0a5.28,5.28,0,0,0,.9,6.24,6.93,6.93,0,0,0,.64.56,5.23,5.23,0,0,1-2-.56c-.12-.08-.18,0-.19.11a3,3,0,0,0,0,.59A5.35,5.35,0,0,0,12,23a3.25,3.25,0,0,0,.67.21,5.92,5.92,0,0,1-2,.06c-.14,0-.2,0-.14.18a5.52,5.52,0,0,0,4.14,3.47,5,5,0,0,1,.56.08s0,0,0,0c-.46.71-2.08,1.24-2.83,1.5a10,10,0,0,1-4.3.55c-.23,0-.28,0-.34,0s0,.1.07.16c.29.19.59.36.89.53a14.83,14.83,0,0,0,2.87,1.15c5.17,1.42,11,.38,14.86-3.48,3-3,4.11-7.19,4.11-11.37,0-.16.2-.26.31-.34a10.59,10.59,0,0,0,2-2.1.63.63,0,0,0,.12-.41v0C33,13.12,33,13.14,32.91,13.19Z"/><path class="cls-3" d="M15.23,31.43Z"/><path class="cls-3" d="M15.23,31.43Z"/><path class="cls-3" d="M16.08,31.45s.45,0,0,0C16.08,31.43,16.13,31.45,16.08,31.45Z"/><path class="cls-3" d="M25,10.73a.09.09,0,0,1-.1,0Z"/></g></g></svg>