<svg xmlns="http://www.w3.org/2000/svg" xmlns:xlink="http://www.w3.org/1999/xlink" width="71" height="71" viewBox="0 0 71 71"><defs><path id="kcpja" d="M2328.708 2379.347c0 19.328-15.671 35-35 35-19.33 0-35-15.672-35-35 0-19.33 15.67-35 35-35 19.329 0 35 15.67 35 35z"/><path id="kcpjb" d="M2270.893 2380.913c-.282-7.442 6.236-14.317 13.685-14.406 3.795-.323 7.488 1.15 10.364 3.554-1.18 1.295-2.38 2.579-3.658 3.776-2.533-1.536-5.576-2.71-8.535-1.667-4.766 1.355-7.654 6.985-5.888 11.649 1.459 4.874 7.385 7.546 12.03 5.498 2.404-.858 3.988-3.076 4.686-5.462-2.757-.054-5.514-.021-8.268-.097-.01-1.64-.016-3.272-.01-4.911 4.598-.008 9.2-.021 13.804.019.28 4.018-.311 8.317-2.925 11.543-3.573 4.603-10.181 5.952-15.557 4.146-5.704-1.873-9.852-7.62-9.728-13.642z"/><path id="kcpjc" d="M2308.059 2374.71h4.1c.007 1.375.019 2.75.028 4.122 1.37.013 2.748.022 4.119.027v4.108c-1.371.006-2.748.012-4.12.02a630.71 630.71 0 0 0-.026 4.125c-1.372-.005-2.745 0-4.107 0-.015-1.377-.015-2.747-.027-4.118-1.371-.015-2.751-.021-4.122-.027v-4.108c1.37-.008 2.742-.014 4.122-.027.006-1.371.018-2.747.033-4.121z"/></defs><g><g transform="translate(-2258 -2344)"><use fill="#da4e41" xlink:href="#kcpja"/></g><g transform="translate(-2258 -2344)"><use fill="#fff" xlink:href="#kcpjb"/></g><g transform="translate(-2258 -2344)"><use fill="#fff" xlink:href="#kcpjc"/></g></g></svg>