<svg xmlns="http://www.w3.org/2000/svg" xmlns:xlink="http://www.w3.org/1999/xlink" width="71" height="70" viewBox="0 0 71 70"><defs><path id="yt8fa" d="M2223.588 2498.958c0 19.33-15.671 35-35 35-19.33 0-35-15.67-35-35s15.67-35 35-35c19.329 0 35 15.67 35 35z"/><path id="yt8fb" d="M2191.411 2510.827c-2.645-.207-3.756-1.517-5.83-2.778-1.143 5.983-2.535 11.719-6.665 14.716-1.274-9.043 1.87-15.837 3.332-23.044-2.488-4.196.3-12.635 5.554-10.554 6.463 2.556-5.6 15.589 2.501 17.216 8.454 1.699 11.905-14.669 6.662-19.993-7.576-7.687-22.053-.175-20.27 10.83.432 2.689 3.213 3.505 1.11 7.218-4.848-1.074-6.296-4.898-6.11-9.995.302-8.344 7.497-14.186 14.717-14.997 9.134-1.02 17.703 3.354 18.885 11.942 1.332 9.694-4.12 20.192-13.886 19.439z"/></defs><g><g transform="translate(-2153 -2464)"><use fill="#c92027" xlink:href="#yt8fa"/></g><g transform="translate(-2153 -2464)"><use fill="#eff0f0" xlink:href="#yt8fb"/></g></g></svg>