<svg xmlns="http://www.w3.org/2000/svg" xmlns:xlink="http://www.w3.org/1999/xlink" width="71" height="71" viewBox="0 0 71 71"><defs><path id="74ysa" d="M2223.588 2379.347c0 19.328-15.671 35-35 35-19.33 0-35-15.672-35-35 0-19.33 15.67-35 35-35 19.329 0 35 15.67 35 35z"/><path id="74ysb" d="M2187.266 2394.698h2.748s.828-.092 1.25-.549c.392-.42.38-1.206.38-1.206s-.055-3.686 1.657-4.228c1.688-.537 3.85 3.56 6.148 5.136 1.736 1.194 3.055.932 3.055.932l6.135-.085s3.21-.198 1.689-2.724c-.125-.207-.887-1.867-4.565-5.279-3.847-3.57-3.332-2.995 1.304-9.173 2.824-3.762 3.952-6.059 3.6-7.043-.337-.938-2.412-.689-2.412-.689l-6.912.043s-.512-.07-.892.155c-.372.223-.61.743-.61.743s-1.094 2.913-2.553 5.386c-3.077 5.228-4.307 5.502-4.81 5.18-1.17-.759-.877-3.04-.877-4.66 0-5.065.768-7.176-1.496-7.72-.75-.184-1.304-.303-3.224-.32-2.467-.028-4.553.005-5.735.584-.786.384-1.393 1.244-1.025 1.291.458.061 1.495.282 2.042 1.028.707.962.683 3.125.683 3.125s.407 5.962-.951 6.702c-.932.51-2.208-.53-4.953-5.27-1.405-2.428-2.465-5.112-2.465-5.112s-.204-.5-.57-.768c-.445-.326-1.063-.429-1.063-.429l-6.565.042s-.987.027-1.35.457c-.32.381-.023 1.17-.023 1.17s5.139 12.027 10.96 18.087c5.338 5.56 11.4 5.194 11.4 5.194z"/></defs><g><g transform="translate(-2153 -2344)"><use fill="#4d769f" xlink:href="#74ysa"/></g><g transform="translate(-2153 -2344)"><use fill="#fff" xlink:href="#74ysb"/></g></g></svg>