<svg xmlns="http://www.w3.org/2000/svg" viewBox="0 0 40.88 40.88"><defs><clipPath id="A"><path d="M0 0h40v40H0z"/></clipPath></defs><g clip-path="url(#A)"><g fill="none" stroke="#4c5256"><circle cx="20" cy="20" r="19.5"/></g><path d="M24.846 15.902h0c.119 0 .119 0 .238.119.119.238-.238.713-.475 1.069l-5.345 5.107c-.238 0-.356 0-.356.119.001.032-.011.063-.034.085s-.053.035-.085.034a.95.95 0 0 0 .238 1.306 47.01 47.01 0 0 0 4.038 2.732c.713.475 1.188.713 1.188.831.628.48 1.361.805 2.138.95h.356c.406-.108.723-.425.831-.831a1.07 1.07 0 0 0 .119-.594l1.306-7.958.475-3.088.475-2.85c.095-.336.004-.698-.238-.95-.163-.149-.374-.233-.594-.238-.238 0-.475.119-.713.119l-5.226 2.138-12 4.988c-.356.126-.681.329-.95.594-.149.112-.237.288-.237.475s.088.363.237.475l3.326 1.069a3.66 3.66 0 0 0 1.188.119 5.05 5.05 0 0 0 1.306-.238s3.682-2.375 7.245-4.87a3.3 3.3 0 0 1 1.544-.713" fill="#4c5256"/></g></svg>