<svg xmlns="http://www.w3.org/2000/svg" xmlns:xlink="http://www.w3.org/1999/xlink" width="71" height="70" viewBox="0 0 71 70"><defs><path id="zpoca" d="M2093.901 2482.583a6.046 6.046 0 0 1 6.04 6.039v20.861a6.05 6.05 0 0 1-6.04 6.043h-20.864a6.047 6.047 0 0 1-6.039-6.043v-20.861a6.043 6.043 0 0 1 6.04-6.039zm-10.434 27.315c5.98 0 10.845-4.867 10.845-10.844 0-5.98-4.862-10.846-10.845-10.846-5.978 0-10.845 4.866-10.845 10.846 0 5.977 4.867 10.844 10.845 10.844zm11.197-19.448a2.57 2.57 0 0 0 2.566-2.565 2.573 2.573 0 0 0-2.566-2.568 2.567 2.567 0 0 0 0 5.133z"/><path id="zpocb" d="M2083.467 2492.793a6.268 6.268 0 0 0-6.26 6.26 6.27 6.27 0 0 0 6.26 6.264 6.271 6.271 0 0 0 6.265-6.263c0-3.45-2.811-6.261-6.265-6.261z"/><path id="zpocc" d="M2083.466 2463.958c-19.328 0-34.998 15.67-34.998 35s15.67 35 34.999 35c19.33 0 35-15.67 35-35s-15.67-35-35-35zm21.057 45.525c0 5.861-4.766 10.624-10.622 10.624h-20.863c-5.858 0-10.625-4.763-10.625-10.624v-20.86c0-5.857 4.768-10.625 10.625-10.625h20.863c5.857 0 10.622 4.768 10.622 10.624z"/></defs><g><g transform="translate(-2048 -2464)"><use fill="#fff" xlink:href="#zpoca"/></g><g transform="translate(-2048 -2464)"><use fill="#fff" xlink:href="#zpocb"/></g><g transform="translate(-2048 -2464)"><use fill="#fff" xlink:href="#zpocc"/></g></g></svg>