<?xml version="1.0" encoding="utf-8"?>
<!-- Generator: Adobe Illustrator 22.0.1, SVG Export Plug-In . SVG Version: 6.00 Build 0)  -->
<svg version="1.1" id="Layer_1" xmlns="http://www.w3.org/2000/svg" xmlns:xlink="http://www.w3.org/1999/xlink" x="0px" y="0px"
	 viewBox="0 0 90 90" style="enable-background:new 0 0 90 90;" xml:space="preserve">
<style type="text/css">
	.st0{fill:#F99400;}
	.st1{fill:#FFFFFF;}
</style>
<g>
	<circle class="st0" cx="45" cy="45" r="45"/>
	<g>
		<path class="st1" d="M40.7,54.3c-1.6-0.4-3.1-0.9-4.6-1.7c-0.5-0.3-1-0.6-1.5-0.9c-1.5-0.9-1.9-2.8-1-4.2c0.9-1.5,2.8-2,4.2-1.1
			c1.5,0.9,3,1.5,4.7,1.8c3.3,0.6,6.4,0,9.3-1.7c0.6-0.3,1.2-0.6,1.9-0.6c1.4,0,2.6,0.9,3,2.2c0.4,1.3-0.1,2.7-1.3,3.5
			c-1.8,1.2-3.8,2-5.9,2.5c-0.1,0-0.2,0-0.3,0.1c0.1,0.1,0.2,0.2,0.2,0.2c1.9,1.9,3.7,3.7,5.6,5.6c1.1,1.1,1.3,2.6,0.6,3.8
			c-1,1.8-3.4,2.1-4.9,0.6c-1.8-1.8-3.7-3.7-5.5-5.5c-0.1-0.1-0.1-0.1-0.3-0.3c-0.1,0.1-0.1,0.2-0.2,0.3c-1.8,1.9-3.7,3.7-5.5,5.5
			c-1.3,1.3-3.2,1.3-4.4,0c-1.1-1.2-1.2-3-0.1-4.2c0.1-0.2,0.3-0.3,0.5-0.5c1.8-1.8,3.5-3.5,5.3-5.3C40.6,54.4,40.6,54.4,40.7,54.3z
			"/>
		<path class="st1" d="M45,24.6c5.8,0,10.5,4.7,10.5,10.5c0,5.8-4.7,10.5-10.5,10.5c-5.9,0-10.5-4.7-10.6-10.5
			C34.4,29.3,39.1,24.6,45,24.6z M49.4,35.1c0-2.4-1.9-4.4-4.3-4.4c-2.4,0-4.4,1.9-4.4,4.3c0,2.4,1.9,4.4,4.3,4.4
			C47.4,39.5,49.4,37.6,49.4,35.1z"/>
	</g>
</g>
</svg>
