<svg version="1.1"
	 xmlns="http://www.w3.org/2000/svg" xmlns:xlink="http://www.w3.org/1999/xlink" xmlns:a="http://ns.adobe.com/AdobeSVGViewerExtensions/3.0/"
	 x="0px" y="0px" width="257px" height="59.9px" viewBox="0 0 257 59.9" style="enable-background:new 0 0 257 59.9;"
	 xml:space="preserve">
<style type="text/css">
	.st0{fill:#FFFFFF;}
	.st1{fill:#4C5256;}
	.st2{fill:#009E00;}
	.st3{fill:#656668;}
</style>
    <path class="st0" d="M255,59.9H2c-1.1,0-2-0.9-2-2V2c0-1.1,0.9-2,2-2h253c1.1,0,2,0.9,2,2v55.9C257,59,256.1,59.9,255,59.9"></path>
<g>
	<path class="st1" d="M98.1,41.3h-1.3l-0.3-2.9H85.6l-0.3,2.9H84v-4.5h1.6c0.1-0.2,0.3-0.5,0.5-1.1s0.5-1.5,0.7-2.6s0.5-2.5,0.7-4.2 c0.2-1.7,0.3-3.7,0.3-6h8.3v13.8h2V41.3z M94.2,36.8V24.6h-4.7c0,1.6-0.1,3.1-0.3,4.4c-0.1,1.3-0.3,2.4-0.5,3.4s-0.4,1.9-0.6,2.6 c-0.2,0.7-0.5,1.3-0.7,1.8H94.2z"></path>
    <path class="st1" d="M99.5,30.7c0-2.6,0.5-4.6,1.6-5.9c1.1-1.4,2.6-2.1,4.7-2.1c1.1,0,2,0.2,2.8,0.6s1.5,0.9,2,1.6s0.9,1.5,1.2,2.5 c0.3,1,0.4,2.1,0.4,3.3c0,2.6-0.5,4.6-1.6,5.9c-1.1,1.4-2.7,2.1-4.7,2.1c-1.1,0-2-0.2-2.8-0.6s-1.4-0.9-2-1.6 c-0.5-0.7-0.9-1.5-1.2-2.5C99.6,33,99.5,31.9,99.5,30.7z M101.4,30.7c0,0.9,0.1,1.7,0.3,2.4s0.4,1.4,0.8,2s0.8,1,1.4,1.4 c0.6,0.3,1.2,0.5,2,0.5c1.4,0,2.4-0.5,3.2-1.6c0.8-1,1.2-2.6,1.2-4.8c0-0.8-0.1-1.6-0.3-2.4c-0.2-0.8-0.4-1.5-0.8-2 c-0.4-0.6-0.8-1-1.4-1.4c-0.6-0.3-1.2-0.5-2-0.5c-1.4,0-2.4,0.5-3.2,1.6C101.8,27,101.4,28.6,101.4,30.7z"></path>
    <path class="st1" d="M115.2,23h8.4v1.6h-6.6v4.6c0.3,0,0.6-0.1,0.9-0.1c0.4,0,0.7-0.1,1.1-0.1c0.8,0,1.5,0.1,2.1,0.2 c0.7,0.1,1.3,0.4,1.8,0.7c0.5,0.3,0.9,0.8,1.2,1.4c0.3,0.6,0.5,1.3,0.5,2.2c0,0.9-0.2,1.6-0.5,2.3c-0.3,0.6-0.7,1.2-1.2,1.6 c-0.5,0.4-1.1,0.7-1.8,0.9s-1.4,0.3-2.2,0.3c-0.3,0-0.5,0-0.9,0c-0.3,0-0.6,0-1-0.1c-0.3,0-0.7-0.1-1-0.1c-0.3,0-0.6-0.1-0.9-0.2 V23z M119.2,37c0.5,0,0.9-0.1,1.3-0.2c0.4-0.1,0.8-0.3,1.1-0.6s0.6-0.6,0.8-1c0.2-0.4,0.3-0.9,0.3-1.4c0-0.7-0.1-1.2-0.3-1.6 c-0.2-0.4-0.5-0.7-0.9-1s-0.8-0.4-1.2-0.5c-0.5-0.1-0.9-0.1-1.4-0.1c-0.1,0-0.3,0-0.5,0c-0.2,0-0.4,0-0.5,0s-0.3,0-0.5,0.1 s-0.3,0-0.3,0.1v6.1c0.1,0,0.2,0.1,0.4,0.1s0.4,0,0.6,0c0.2,0,0.4,0,0.6,0C118.8,37,119,37,119.2,37z"></path>
    <path class="st1" d="M134.7,34.2h-5.7l-1.5,4.3h-1.8l5.9-15.7h0.8l5.9,15.7h-1.9L134.7,34.2z M129.7,32.6h4.5l-1.7-4.7l-0.5-2.3h0 l-0.5,2.4L129.7,32.6z"></path>
    <path class="st1" d="M149.7,26.5c0,0.4-0.1,0.7-0.2,1.1c-0.1,0.4-0.3,0.7-0.5,1.1c-0.2,0.3-0.5,0.6-0.9,0.9 c-0.4,0.3-0.8,0.4-1.3,0.6v0.1c0.4,0.1,0.9,0.2,1.3,0.4c0.4,0.2,0.8,0.4,1.1,0.7s0.6,0.7,0.8,1.1c0.2,0.4,0.3,1,0.3,1.6 c0,0.8-0.2,1.5-0.5,2.1c-0.3,0.6-0.8,1.1-1.3,1.4c-0.5,0.4-1.2,0.6-1.8,0.8c-0.7,0.2-1.4,0.3-2.1,0.3c-0.3,0-0.5,0-0.9,0 s-0.7,0-1.1,0c-0.4,0-0.7-0.1-1.1-0.1s-0.7-0.1-1-0.2V23.1c0.5-0.1,1.2-0.2,1.9-0.2s1.5-0.1,2.4-0.1c0.6,0,1.2,0,1.8,0.1 c0.6,0.1,1.1,0.3,1.6,0.6c0.5,0.3,0.9,0.7,1.2,1.1C149.5,25.1,149.7,25.8,149.7,26.5z M143.3,29.8c0.3,0,0.6,0,0.9,0s0.6,0,0.9-0.1 c0.4-0.1,0.7-0.3,1-0.4s0.6-0.4,0.8-0.6s0.4-0.5,0.6-0.8c0.1-0.3,0.2-0.6,0.2-1c0-0.5-0.1-0.9-0.3-1.2s-0.4-0.6-0.7-0.8 c-0.3-0.2-0.7-0.3-1.1-0.4c-0.4-0.1-0.8-0.1-1.2-0.1c-0.5,0-0.9,0-1.3,0c-0.4,0-0.7,0.1-0.9,0.1v5.3H143.3z M144.5,37 c0.5,0,0.9-0.1,1.4-0.2c0.4-0.1,0.8-0.3,1.2-0.5s0.6-0.5,0.8-0.9c0.2-0.4,0.3-0.8,0.3-1.3c0-0.6-0.1-1.1-0.4-1.5 c-0.2-0.4-0.6-0.7-1-0.9c-0.4-0.2-0.8-0.3-1.3-0.4c-0.5-0.1-1-0.1-1.5-0.1h-1.9v5.6c0.1,0,0.3,0.1,0.4,0.1c0.2,0,0.4,0,0.6,0 c0.2,0,0.4,0,0.7,0C144.2,37,144.4,37,144.5,37z"></path>
    <path class="st1" d="M161.5,24.6h-4.6c-0.1,2.9-0.3,5.4-0.6,7.4c-0.2,2-0.6,3.5-1.1,4.6c-0.3,0.7-0.7,1.2-1.1,1.5 c-0.4,0.3-0.9,0.5-1.4,0.5c-0.3,0-0.5,0-0.7-0.1c-0.2,0-0.4-0.1-0.6-0.2l0.2-1.6c0.1,0,0.3,0.1,0.5,0.1c0.3,0,0.5-0.1,0.7-0.2 c0.2-0.2,0.5-0.5,0.7-0.9c0.2-0.4,0.4-0.9,0.6-1.6s0.3-1.5,0.5-2.5c0.1-1,0.3-2.2,0.3-3.6c0.1-1.4,0.2-3.1,0.2-4.9h8.2v15.5h-1.8 V24.6z"></path>
    <path class="st1" d="M167,23h8.4v1.6h-6.6v5.1h6v1.6h-6v5.5h6.7v1.6H167V23z"></path>
    <path class="st1" d="M188.2,31.4h-7.4v7.1h-1.8V23h1.8v6.7h7.4V23h1.8v15.5h-1.8V31.4z"></path>
    <path class="st1" d="M193.1,30.7c0-2.6,0.5-4.6,1.6-5.9c1.1-1.4,2.6-2.1,4.7-2.1c1.1,0,2,0.2,2.8,0.6s1.5,0.9,2,1.6 s0.9,1.5,1.2,2.5c0.3,1,0.4,2.1,0.4,3.3c0,2.6-0.5,4.6-1.6,5.9c-1.1,1.4-2.7,2.1-4.7,2.1c-1.1,0-2-0.2-2.8-0.6s-1.4-0.9-2-1.6 c-0.5-0.7-0.9-1.5-1.2-2.5C193.2,33,193.1,31.9,193.1,30.7z M195.1,30.7c0,0.9,0.1,1.7,0.3,2.4s0.4,1.4,0.8,2s0.8,1,1.4,1.4 c0.6,0.3,1.2,0.5,2,0.5c1.4,0,2.4-0.5,3.2-1.6c0.8-1,1.2-2.6,1.2-4.8c0-0.8-0.1-1.6-0.3-2.4c-0.2-0.8-0.4-1.5-0.8-2 c-0.4-0.6-0.8-1-1.4-1.4c-0.6-0.3-1.2-0.5-2-0.5c-1.4,0-2.4,0.5-3.2,1.6C195.5,27,195.1,28.6,195.1,30.7z"></path>
</g>
<path class="st2" d="M43.4,29.3c0,0,0.5,0.3,1.4,0.9c0.9,0.6,2.1,1.5,3.6,2.5c0.4,0.3,0.8,0.5,1.2,0.8c0.2,0.1,0.4,0.3,0.6,0.4
	c0.2,0.1,0.4,0.2,0.6,0.3l0.1,0c-0.1,0,0.1,0.1-0.1-0.1l0,0l0,0l0,0c-0.1-0.1-0.3-0.1-0.3-0.1c0,0-0.1,0-0.1,0c-0.1,0,0,0,0,0
	c0.1-0.1,0.3-0.3,0.4-0.5c0.3-0.4,0.6-0.8,0.9-1.3c0.6-0.9,1.3-1.9,2-2.8c0.7-1,1.4-2,2.1-2.9c0.7-1,1.5-1.9,2.3-2.9
	c0.8-0.9,1.6-1.8,2.4-2.6c0.8-0.8,1.6-1.6,2.4-2.3c0.8-0.7,1.6-1.3,2.4-1.9c1.5-1.1,2.9-1.8,3.9-2.2c1-0.4,1.6-0.6,1.6-0.6
	s-0.1,0.1-0.4,0.3c-0.2,0.2-0.6,0.4-1,0.8c-0.8,0.7-1.9,1.7-3.2,2.9c-1.2,1.3-2.6,2.8-4,4.6c-1.4,1.7-2.9,3.6-4.3,5.5
	c-0.7,1-1.4,1.9-2.2,2.9c-0.7,0.9-1.4,1.9-2.2,2.8c-0.4,0.4-0.8,0.9-1.2,1.3c-0.2,0.2-0.5,0.4-0.8,0.6c-0.2,0.1-0.4,0.2-0.7,0.3
	c-0.1,0-0.2,0-0.3,0c-0.2,0-0.4,0-0.5-0.1l-0.2-0.1L49.7,36c-0.2-0.2-0.5-0.4-0.7-0.5c-0.2-0.2-0.4-0.3-0.6-0.5
	c-0.4-0.3-0.7-0.7-1-1c-0.7-0.6-1.2-1.3-1.7-1.8c-0.5-0.6-0.9-1.1-1.3-1.5C43.8,29.8,43.4,29.3,43.4,29.3"/>
<path class="st3" d="M65.2,18.6c0,0,0.2,0.3,0.7,1c0.4,0.6,1,1.6,1.5,3c0.5,1.3,1,3,1.3,5.1c0.3,2,0.3,4.3-0.1,6.8
	c-0.1,0.6-0.2,1.3-0.4,1.9c-0.1,0.7-0.4,1.3-0.6,1.9c-0.2,0.7-0.6,1.3-0.8,1.9c-0.3,0.6-0.7,1.3-1.1,1.9c-0.5,0.6-0.9,1.2-1.5,1.8
	l-0.4,0.4l-0.2,0.2l-0.1,0.1l-0.1,0.1l0,0c0,0-0.1,0.1-0.1,0.1c-0.3,0.2-0.6,0.5-0.9,0.7l-0.4,0.3l-0.5,0.3
	c-0.4,0.2-0.7,0.4-1.1,0.7c-0.8,0.3-1.5,0.7-2.3,0.9c-1.6,0.5-3.3,0.7-5.1,0.8c-1.7,0-3.5-0.2-5.2-0.6c-3.4-0.8-6.7-2.5-9.4-5.1
	c-0.4-0.3-0.6-0.7-1-1l-0.5-0.5l-0.1-0.1l0,0l-0.1-0.1l-0.1-0.1l-0.2-0.3c-0.2-0.4-0.5-0.6-0.7-1.1c-0.2-0.4-0.5-0.9-0.7-1.3
	c-0.8-1.7-1.3-3.5-1.4-5.3c-0.3-3.6,0.6-7.2,2.3-10.1c1.7-2.9,4.1-5.2,6.6-6.7c0.6-0.4,1.3-0.7,1.9-1c0.7-0.3,1.3-0.6,2-0.8
	c1.3-0.4,2.6-0.8,3.9-0.9c2.5-0.3,4.8-0.2,6.8,0.2c2,0.5,3.6,1.2,4.8,2c1.2,0.8,2.1,1.6,2.6,2.1C64.9,18.2,65.2,18.6,65.2,18.6
	 M65.2,18.6c0,0-0.3-0.3-0.8-0.9c-0.5-0.6-1.4-1.3-2.6-2.1c-1.3-0.7-2.9-1.4-4.9-1.7c-2-0.3-4.2-0.3-6.6,0.3
	c-2.3,0.6-4.8,1.6-6.9,3.3c-2.2,1.7-4,3.9-5.1,6.5c-0.6,1.3-1,2.7-1.2,4.1c-0.2,1.4-0.3,2.9,0,4.3c0.2,1.4,0.7,2.8,1.3,4
	c0.2,0.3,0.3,0.6,0.5,0.8c0.2,0.3,0.5,0.7,0.7,1l0.2,0.3l0.1,0.1c0,0-0.1-0.1,0-0.1l0,0l0,0l0.4,0.4c0.2,0.3,0.5,0.5,0.7,0.8
	c2.1,2,4.8,3.5,7.6,4.4c2.8,0.9,5.8,1.2,8.6,0.6c0.7-0.1,1.3-0.4,2-0.5l0.9-0.4l0.5-0.2l0.5-0.3c0.3-0.2,0.6-0.4,1-0.6
	c0.2-0.2,0.5-0.4,0.7-0.6c0.6-0.4,1-0.9,1.5-1.4c1.8-2,2.9-4.4,3.5-6.8c0.7-2.3,0.8-4.6,0.6-6.6c-0.1-2-0.6-3.7-1-5.1
	c-0.3-0.7-0.5-1.3-0.8-1.8c-0.3-0.5-0.5-0.9-0.7-1.2C65.4,18.9,65.2,18.6,65.2,18.6"/>
</svg>
