<?xml version="1.0" encoding="utf-8"?>
<!-- Generator: Adobe Illustrator 26.0.3, SVG Export Plug-In . SVG Version: 6.00 Build 0)  -->
<svg version="1.1" id="Слой_1" xmlns="http://www.w3.org/2000/svg" xmlns:xlink="http://www.w3.org/1999/xlink" x="0px" y="0px"
	 viewBox="0 0 44.3 50.5" style="enable-background:new 0 0 44.3 50.5;" xml:space="preserve">
<style type="text/css">
	.st0{clip-path:url(#SVGID_00000119103498510284061760000013238782556214766979_);}
	.st1{fill:#FFFFFF;}
	.st2{fill:#1481D4;}
	.st3{fill:#054A85;}
	.st4{fill:none;}
	.st5{enable-background:new    ;}
</style>
<g>
	<defs>
		<rect id="SVGID_1_" y="0" width="44.3" height="50.5"/>
	</defs>
	<clipPath id="SVGID_00000088101346017292358720000003501951346759680644_">
		<use xlink:href="#SVGID_1_"  style="overflow:visible;"/>
	</clipPath>
	
		<g id="PDF_рекомендательное_письмо_2" style="clip-path:url(#SVGID_00000088101346017292358720000003501951346759680644_);">
		<rect y="0" class="st1" width="44.3" height="50.5"/>
		<path id="Контур_83" class="st2" d="M3.3,0h26.7l14.1,14.1v33c0,1.7-1.4,3.1-3.1,3.1H3.3c-1.7,0-3.1-1.4-3.1-3.1v-44
			C0.1,1.4,1.5,0,3.3,0"/>
		<path id="Контур_84" class="st3" d="M44,14.1H33.1c-1.7,0-3.1-1.4-3.1-3.1V0L44,14.1z"/>
		<rect id="Прямоугольник_33" x="0.1" y="0" class="st4" width="44" height="50.2"/>
		<g class="st5">
			<path class="st1" d="M13,27.1h-1.9v2.8c0,0.4-0.1,0.7-0.3,0.9c-0.2,0.2-0.4,0.3-0.7,0.3c-0.3,0-0.5-0.1-0.7-0.3
				c-0.2-0.2-0.3-0.5-0.3-0.9v-7.7c0-0.4,0.1-0.8,0.3-1s0.5-0.3,1-0.3H13c0.8,0,1.4,0.1,1.8,0.2c0.4,0.1,0.8,0.3,1.1,0.6
				c0.3,0.3,0.5,0.6,0.7,1c0.2,0.4,0.2,0.8,0.2,1.3c0,1-0.3,1.8-0.9,2.3C15.2,26.8,14.2,27.1,13,27.1z M12.5,22.5h-1.4v3h1.4
				c0.5,0,0.9,0,1.2-0.1c0.3-0.1,0.6-0.3,0.7-0.5c0.2-0.2,0.3-0.5,0.3-0.9c0-0.4-0.1-0.8-0.4-1.1C14,22.7,13.4,22.5,12.5,22.5z"/>
			<path class="st1" d="M19.7,21h2.6c0.7,0,1.3,0.1,1.8,0.2c0.5,0.1,0.9,0.4,1.3,0.7c1,0.9,1.6,2.2,1.6,4.1c0,0.6-0.1,1.1-0.2,1.6
				c-0.1,0.5-0.3,0.9-0.5,1.3s-0.5,0.8-0.8,1.1c-0.3,0.2-0.6,0.4-0.9,0.6s-0.7,0.2-1,0.3c-0.4,0.1-0.8,0.1-1.2,0.1h-2.6
				c-0.4,0-0.6-0.1-0.8-0.2c-0.2-0.1-0.3-0.3-0.4-0.5c-0.1-0.2-0.1-0.5-0.1-0.8v-7.3c0-0.4,0.1-0.8,0.3-0.9S19.2,21,19.7,21z
				 M20.5,22.6v6.8H22c0.3,0,0.6,0,0.8,0c0.2,0,0.4-0.1,0.6-0.1s0.4-0.2,0.5-0.3c0.7-0.6,1-1.6,1-3c0-1-0.1-1.7-0.4-2.2
				c-0.3-0.5-0.7-0.8-1.1-0.9s-1-0.2-1.6-0.2H20.5z"/>
			<path class="st1" d="M34.7,22.5h-4v2.6H34c0.3,0,0.5,0.1,0.7,0.2c0.2,0.1,0.2,0.3,0.2,0.6c0,0.2-0.1,0.4-0.2,0.6
				c-0.2,0.1-0.4,0.2-0.7,0.2h-3.3v3.3c0,0.4-0.1,0.7-0.3,0.9c-0.2,0.2-0.4,0.3-0.7,0.3c-0.3,0-0.5-0.1-0.7-0.3s-0.3-0.5-0.3-0.9
				v-7.7c0-0.3,0-0.5,0.1-0.7s0.2-0.3,0.4-0.4s0.4-0.1,0.7-0.1h4.8c0.3,0,0.6,0.1,0.7,0.2c0.2,0.1,0.2,0.3,0.2,0.6
				c0,0.2-0.1,0.4-0.2,0.6S35,22.5,34.7,22.5z"/>
		</g>
	</g>
</g>
</svg>
