<svg version="1.1" xmlns="http://www.w3.org/2000/svg" x="0px" y="0px" width="44px" height="50.2px" viewBox="0 0 44 50.2" xml:space="preserve">
<style type="text/css">
	.st0{fill:#E2574C;}
	.st1{fill:#B53629;}
	.st2{fill:#FFFFFF;}
</style>
    <path class="st0" d="M3.1,0h26.7L44,14.1v33c0,1.7-1.4,3.1-3.1,3.1H3.1c-1.7,0-3.1-1.4-3.1-3.1v-44C0,1.4,1.4,0,3.1,0L3.1,0z M3.1,0"></path>
    <path class="st1" d="M43.9,14.1H33c-1.7,0-3.1-1.4-3.1-3.1V0L43.9,14.1z M43.9,14.1"></path>
	<path class="st2" d="M32.2,23.8c0.5,0,0.8-0.5,0.8-0.9c0-0.5-0.3-0.9-0.8-0.9h-3c-0.6,0-0.9,0.5-0.9,1v7.4c0,0.7,0.4,1,0.9,1 c0.5,0,0.9-0.4,0.9-1v-2h1.8c0.6,0,0.8-0.5,0.8-0.9c0-0.4-0.3-0.9-0.8-0.9H30v-2.7H32.2z M22.1,22h-2.2c-0.6,0-1,0.4-1,1v7.4 c0,0.8,0.6,1,1,1h2.3c2.7,0,4.5-1.8,4.5-4.6C26.7,23.9,25,22,22.1,22L22.1,22z M22.2,29.6h-1.3v-5.7H22c1.8,0,2.6,1.2,2.6,2.9 C24.6,28.3,23.9,29.6,22.2,29.6L22.2,29.6z M14.1,22H12c-0.6,0-1,0.4-1,1v7.4c0,0.7,0.4,1,0.9,1c0.5,0,0.9-0.4,0.9-1v-2.1h1.4 c1.7,0,3.1-1.2,3.1-3.1C17.3,23.3,15.9,22,14.1,22L14.1,22z M14.1,26.5h-1.3v-2.8h1.3c0.8,0,1.3,0.6,1.3,1.4 C15.4,25.9,14.9,26.5,14.1,26.5L14.1,26.5z M14.1,26.5"></path>
</svg>
