<svg xmlns="http://www.w3.org/2000/svg" viewBox="0 0 40.88 40.88"><defs><style>.cls-1{fill:none;stroke:#4c5256;stroke-miterlimit:10;}.cls-2{fill:#4c5256;}</style></defs><title>soc_2_fb</title><g id="Слой_2" data-name="Слой 2"><g id="Слой_1-2" data-name="Слой 1"><circle class="cls-1" cx="20.44" cy="20.44" r="19.94"/><path class="cls-2" d="M26.55,7H23.07c-3.91,0-6.44,2.6-6.44,6.61v3.05h-3.5a.54.54,0,0,0-.55.55v4.41a.55.55,0,0,0,.55.55h3.5V33.32a.55.55,0,0,0,.54.55h4.57a.55.55,0,0,0,.55-.55V22.18h4.09a.55.55,0,0,0,.55-.55V17.22a.51.51,0,0,0-.16-.39.55.55,0,0,0-.38-.16h-4.1V14.09c0-1.24.3-1.88,1.91-1.88h2.35a.55.55,0,0,0,.55-.54V7.57A.55.55,0,0,0,26.55,7Z"/></g></g></svg>