<svg xmlns="http://www.w3.org/2000/svg" viewBox="0 0 40.88 40.88"><defs><style>.cls-1{fill:none;stroke:#4c5256;stroke-miterlimit:10;}.cls-2{fill:#4c5256;}</style></defs><title>soc_2_ok</title><g id="Слой_2" data-name="Слой 2"><g id="Слой_1-2" data-name="Слой 1"><circle class="cls-1" cx="20.44" cy="20.44" r="19.94"/><path class="cls-2" d="M26.62,20.69a2.9,2.9,0,0,0-1,.52,9.43,9.43,0,0,1-10.46-.09,3.24,3.24,0,0,0-.47-.28,1.72,1.72,0,0,0-1.95,2.81,7.22,7.22,0,0,0,.6.5,10.81,10.81,0,0,0,5.75,2.05l-.35.38L14,31.32a1.76,1.76,0,0,0-.58,1.17,1.89,1.89,0,0,0,1.09,1.74,1.56,1.56,0,0,0,1.87-.34c1.23-1.22,2.47-2.45,3.68-3.7.3-.31.47-.38.81,0,1.19,1.24,2.41,2.43,3.62,3.64a1.71,1.71,0,0,0,1.12.58,1.9,1.9,0,0,0,1.78-1.11A1.59,1.59,0,0,0,27,31.41c-1.59-1.61-3.2-3.21-4.79-4.81l-.38-.4a14.37,14.37,0,0,0,3.46-.78,8.46,8.46,0,0,0,3-2,1.56,1.56,0,0,0,.11-2A1.6,1.6,0,0,0,26.62,20.69Z"/><path class="cls-2" d="M20.39,20.7a7,7,0,1,0-7-7A7,7,0,0,0,20.39,20.7Zm.05-10.46A3.44,3.44,0,1,1,17,13.71,3.41,3.41,0,0,1,20.44,10.24Z"/></g></g></svg>